PathFileType	4	(X/Y/Z)	/Users/itak/Documents/Research/Walk-IL/dataset/trc/00232_00009.trc
DataRate	CameraRate	NumFrames	NumMarkers	Units	OrigDataRate	OrigDataStartFrame	OrigNumFrames
100.000000	100.000000	4	53	mm	100.000000	639	852
Frame#	Time	RPSI			LPSI			L3			STRN			T10			C7			CLAV			RBAK			LBAK			LSHO			LUPA			LAEL			LAOL			LWTS			LWPS			LFRA			LIFD			LHPS			LHTS			RSHO			RUPA			RAEL			RAOL			RWTS			RWPS			RFRA			RIFD			RHTS			RHPS			RBHD			LFHD			RFHD			LBHD			LHIP			RHIP			RASI			LASI			LKNE			LTHI			LANK			LTIP			LTOE			LMT1			LMT5			LHEE			RKNE			RTHI			RANK			RTIP			RTOE			RMT1			RMT5			RHEE			
		X1	Y1	Z1	X2	Y2	Z2	X3	Y3	Z3	X4	Y4	Z4	X5	Y5	Z5	X6	Y6	Z6	X7	Y7	Z7	X8	Y8	Z8	X9	Y9	Z9	X10	Y10	Z10	X11	Y11	Z11	X12	Y12	Z12	X13	Y13	Z13	X14	Y14	Z14	X15	Y15	Z15	X16	Y16	Z16	X17	Y17	Z17	X18	Y18	Z18	X19	Y19	Z19	X20	Y20	Z20	X21	Y21	Z21	X22	Y22	Z22	X23	Y23	Z23	X24	Y24	Z24	X25	Y25	Z25	X26	Y26	Z26	X27	Y27	Z27	X28	Y28	Z28	X29	Y29	Z29	X30	Y30	Z30	X31	Y31	Z31	X32	Y32	Z32	X33	Y33	Z33	X34	Y34	Z34	X35	Y35	Z35	X36	Y36	Z36	X37	Y37	Z37	X38	Y38	Z38	X39	Y39	Z39	X40	Y40	Z40	X41	Y41	Z41	X42	Y42	Z42	X43	Y43	Z43	X44	Y44	Z44	X45	Y45	Z45	X46	Y46	Z46	X47	Y47	Z47	X48	Y48	Z48	X49	Y49	Z49	X50	Y50	Z50	X51	Y51	Z51	X52	Y52	Z52	X53	Y53	Z53	

640	6.390000000000001	-313.3921813964844	1028.274780273438	170.55908203125	-203.5097351074219	1030.335571289062	121.054557800293	-246.5476531982422	1110.426513671875	130.8950958251953	-139.2041473388672	1303.611694335938	348.4837036132812	-257.8822021484375	1238.954223632812	126.7535018920898	-231.9462280273438	1502.077880859375	176.3587799072266	-157.2505493164062	1419.48095703125	323.0401916503906	-326.8355712890625	1359.405395507812	141.2094573974609	-143.6997222900391	1464.710327148438	108.0552291870117	-51.96510314941406	1467.501342773438	159.4997863769531	0.6443173885345459	1350.824462890625	88.51087951660156	27.82894134521484	1142.648803710938	72.76753234863281	-51.73198318481445	1126.755737304688	37.563720703125	30.04899024963379	910.1677856445312	181.0931396484375	85.15673065185547	895.1070556640625	118.8382568359375	52.46950912475586	1035.812866210938	83.70009613037109	44.59017181396484	715.3831787109375	177.9835662841797	92.41082763671875	807.307373046875	135.1226806640625	67.56653594970703	809.5806884765625	198.7792053222656	-356.5012512207031	1458.064331054688	302.4424743652344	-422.9463195800781	1391.77685546875	315.4705505371094	-467.2960205078125	1112.694458007812	326.6311950683594	-403.9636535644531	1101.712036132812	256.328369140625	-370.2848205566406	902.6624755859375	439.8796691894531	-452.2885437011719	889.1193237304688	422.615478515625	-467.1845397949219	1046.01513671875	359.0579833984375	-363.7701110839844	710.1889038085938	457.6589050292969	-370.0492553710938	783.6934814453125	487.5191345214844	-437.7585754394531	783.827880859375	463.2380981445312	-251.9636383056641	1669.945434570312	252.1289672851562	-67.85923004150391	1683.747802734375	385.5267944335938	-155.4065399169922	1685.721923828125	433.9857482910156	-113.1252822875977	1667.455200195312	227.5508728027344	-32.49876403808594	964.3710327148438	155.0149383544922	-366.3935546875	998.42724609375	307.8045959472656	-291.466064453125	1042.540893554688	375.2871704101562	-34.19187164306641	1013.315734863281	263.5949096679688	-92.62564849853516	480.2979736328125	202.7020111083984	-59.06674575805664	623.7482299804688	193.9725799560547	-214.9055938720703	101.4659957885742	-82.96014404296875	-144.8286285400391	297.8145141601562	63.51435852050781	-287.8590698242188	39.49711990356445	106.9901809692383	-320.4293518066406	56.64234161376953	41.21173858642578	-208.6910095214844	42.6295166015625	32.39023208618164	-261.771728515625	148.2033081054688	-130.8940124511719	-261.9353332519531	527.6948852539062	435.0025024414062	-329.9241943359375	786.0284423828125	404.7220153808594	-280.1640014648438	29.89205360412598	403.1776428222656	-237.8445892333984	406.0751647949219	447.9042053222656	-106.4401931762695	43.61832427978516	533.6273193359375	-112.6584777832031	42.96194839477539	464.3051147460938	-228.2318725585938	31.62748336791992	503.2077331542969	-274.8801879882812	31.32555389404297	317.8184204101562	
641	6.4	-313.3859252929688	1029.276123046875	177.8502960205078	-204.3301544189453	1031.080444335938	126.8650817871094	-247.066162109375	1111.239990234375	137.4336090087891	-136.947509765625	1304.2900390625	353.6400146484375	-258.3756408691406	1239.705444335938	133.4850616455078	-231.7646636962891	1502.81689453125	182.6542816162109	-155.4068298339844	1420.187133789062	328.4682312011719	-326.8721313476562	1360.08251953125	148.4152679443359	-144.0924224853516	1465.677978515625	113.5023880004883	-51.84605407714844	1468.546508789062	163.9107360839844	-0.1294731199741364	1351.968872070312	92.03776550292969	26.19783210754395	1143.841918945312	74.88497161865234	-54.03998565673828	1128.4140625	41.43256759643555	30.66974258422852	909.7684326171875	179.8974914550781	83.75094604492188	895.3435668945312	115.7200622558594	50.80205535888672	1036.770629882812	83.71842193603516	43.62137985229492	714.9334716796875	173.2240753173828	90.90327453613281	807.242431640625	130.3995513916016	67.95220947265625	808.65234375	194.8465881347656	-354.9289855957031	1458.647338867188	309.9364624023438	-421.2615661621094	1392.38037109375	323.6151428222656	-465.3489685058594	1113.267822265625	335.3383483886719	-402.6983642578125	1102.216430664062	264.5028076171875	-367.353271484375	903.6893310546875	448.4764099121094	-449.4238586425781	889.9613647460938	431.7486877441406	-464.96435546875	1046.655517578125	367.9201965332031	-360.4061279296875	711.35205078125	467.0320129394531	-366.3857421875	784.9126586914062	496.6987609863281	-434.4977416992188	784.89013671875	472.7308959960938	-250.9778900146484	1670.648559570312	259.0396118164062	-65.43915557861328	1684.18212890625	390.4150695800781	-152.41357421875	1685.95703125	439.8710327148438	-112.4486846923828	1668.325073242188	232.9227142333984	-32.56080627441406	964.82666015625	158.9709014892578	-364.7391357421875	999.3179931640625	315.6451721191406	-289.1851806640625	1043.358642578125	382.3151245117188	-33.33478546142578	1013.802062988281	267.5183410644531	-88.23654174804688	480.1776733398438	209.9745178222656	-56.50120544433594	623.9432983398438	199.9110412597656	-217.4789276123047	107.2595138549805	-80.22836303710938	-143.8115539550781	300.7529296875	68.70735168457031	-286.8756408691406	39.24496078491211	108.0070266723633	-320.8082885742188	58.28075790405273	43.92874908447266	-209.4578247070312	43.57394790649414	32.61153030395508	-265.4567260742188	155.7174224853516	-125.2399139404297	-261.0288391113281	527.25830078125	438.0546875	-328.1673889160156	786.1998901367188	410.8067321777344	-280.0837707519531	29.98089027404785	403.1663818359375	-237.0784912109375	405.5547790527344	450.0445556640625	-106.0537033081055	43.36099243164062	533.4720458984375	-112.3518447875977	42.74056625366211	464.2788391113281	-228.1416473388672	31.71955871582031	503.1623840332031	-274.863037109375	31.37281036376953	317.8211364746094	
642	6.41	-313.4551086425781	1030.275634765625	185.0466003417969	-205.1527557373047	1031.79443359375	132.5714416503906	-247.6682434082031	1112.0654296875	143.8649749755859	-134.6995391845703	1304.872802734375	358.6867370605469	-258.94091796875	1240.4580078125	140.1344299316406	-231.5286254882812	1503.541381835938	188.9490966796875	-153.497314453125	1420.811767578125	333.8476867675781	-326.8934936523438	1360.78466796875	155.6359558105469	-144.45166015625	1466.619873046875	118.9272613525391	-51.71079254150391	1469.514770507812	168.2950897216797	-0.8604853749275208	1353.0703125	95.53672790527344	24.74744987487793	1145.025512695312	77.01441192626953	-56.05312347412109	1130.0556640625	45.06948852539062	31.0886173248291	909.4579467773438	178.8077392578125	82.32944488525391	895.6827392578125	112.9737396240234	49.26891326904297	1037.758666992188	83.91243743896484	42.32331466674805	714.6323852539062	168.7400512695312	89.26024627685547	807.2921142578125	126.0967102050781	68.00074768066406	807.8509521484375	191.1800689697266	-353.262939453125	1459.239990234375	317.45068359375	-419.4975280761719	1393.00634765625	331.7749938964844	-463.4035949707031	1113.869384765625	343.9737548828125	-401.4808654785156	1102.761962890625	272.5895080566406	-364.3538818359375	904.7644653320312	456.9738464355469	-446.4845275878906	890.8161010742188	440.7888793945312	-462.7333984375	1047.3125	376.7049865722656	-356.865234375	712.5827026367188	476.3239135742188	-362.5939636230469	786.2158203125	505.8099670410156	-431.0885314941406	785.978759765625	482.1484680175781	-249.8707885742188	1671.30419921875	265.92236328125	-62.92575073242188	1684.58447265625	395.2545166015625	-149.2881774902344	1686.164672851562	445.7087097167969	-111.6798400878906	1669.147583007812	238.2763671875	-32.68777084350586	965.2774658203125	162.6600646972656	-363.0279846191406	1000.161010742188	323.402099609375	-286.8643493652344	1044.079345703125	389.2017517089844	-32.51296997070312	1014.259887695312	271.1068725585938	-83.56928253173828	480.0840148925781	217.1442413330078	-53.77795028686523	624.1458129882812	205.6925964355469	-220.3619537353516	113.4060516357422	-77.09046936035156	-142.7635192871094	303.816162109375	74.09619140625	-285.3497314453125	38.89001083374023	109.412223815918	-320.9217529296875	60.11671829223633	47.32621765136719	-210.1155395507812	44.91822052001953	32.84716415405273	-269.5066528320312	163.3905029296875	-118.9922027587891	-260.052734375	526.8309936523438	441.0375366210938	-326.2047729492188	786.37744140625	416.8042297363281	-280.0075378417969	30.06014823913574	403.1673889160156	-236.2748260498047	405.0437622070312	452.0961608886719	-105.7252960205078	43.1347770690918	533.3316650390625	-112.0683212280273	42.54124069213867	464.25439453125	-228.0563812255859	31.80064964294434	503.1212463378906	-274.85205078125	31.42522811889648	317.8323059082031	
643	6.42	-313.5819702148438	1031.25341796875	192.1212921142578	-205.9657287597656	1032.463500976562	138.1584320068359	-248.335693359375	1112.900756835938	150.1667938232422	-132.4631805419922	1305.349243164062	363.6136169433594	-259.5414733886719	1241.21484375	146.6840209960938	-231.2430114746094	1504.252197265625	195.2400054931641	-151.5287475585938	1421.342407226562	339.1723022460938	-326.9149169921875	1361.513427734375	162.8751831054688	-144.7869720458984	1467.529541015625	124.3233337402344	-51.56564712524414	1470.394287109375	172.6448822021484	-1.564810395240784	1354.111328125	99.00553894042969	23.46163749694824	1146.183349609375	79.14109039306641	-57.81979370117188	1131.657470703125	48.46052932739258	31.30098915100098	909.222900390625	177.8474273681641	80.92587280273438	896.10546875	110.6147918701172	47.87111282348633	1038.759399414062	84.27706146240234	40.77795028686523	714.4693603515625	164.5772857666016	87.53480529785156	807.4410400390625	122.2458114624023	67.7496337890625	807.1673583984375	187.8244934082031	-351.4961547851562	1459.835693359375	324.9975891113281	-417.6427917480469	1393.6484375	339.9718627929688	-461.4622802734375	1114.492919921875	352.559814453125	-400.3026123046875	1103.3408203125	280.6105651855469	-361.2803344726562	905.8670654296875	465.3628540039062	-443.465576171875	891.66455078125	449.7335510253906	-460.4873046875	1047.979370117188	385.4297790527344	-353.1373596191406	713.862548828125	485.5020446777344	-358.7210388183594	787.5731201171875	514.8040771484375	-427.5294799804688	787.070068359375	491.4684753417969	-248.6509704589844	1671.90478515625	272.7640686035156	-60.31749725341797	1684.951782226562	400.0351257324219	-146.0334167480469	1686.350219726562	451.4862976074219	-110.8207626342773	1669.904296875	243.5991973876953	-32.90739059448242	965.7055053710938	166.0668334960938	-361.2737426757812	1000.950622558594	331.0428466796875	-284.5009765625	1044.691772460938	395.9215698242188	-31.71471786499023	1014.679016113281	274.3633422851562	-78.67622375488281	480.0422973632812	224.1687164306641	-50.91564178466797	624.369140625	211.2911834716797	-223.6015472412109	119.8643951416016	-73.50914001464844	-141.7119293212891	306.9855346679688	79.67760467529297	-283.0164184570312	38.4322624206543	111.283203125	-320.5712890625	62.13895416259766	51.56240844726562	-210.5439758300781	46.78913497924805	33.12605667114258	-273.9725341796875	171.1187286376953	-112.1098861694336	-259.0177612304688	526.4066772460938	443.9662475585938	-324.0551147460938	786.5568237304688	422.7193908691406	-279.9385070800781	30.12709617614746	403.1815490722656	-235.4458160400391	404.5381469726562	454.0757141113281	-105.458381652832	42.93771743774414	533.2106323242188	-111.8086853027344	42.36520385742188	464.230224609375	-227.9806671142578	31.86724853515625	503.0870361328125	-274.8492431640625	31.48041343688965	317.8522033691406	
